<svg width="355" height="407" viewBox="0 0 355 407" fill="none" xmlns="http://www.w3.org/2000/svg">
<path d="M113.433 389.919C134.843 408.562 146.036 405.079 150.209 405.079L158.721 301.157L30.9927 308.034C26.3976 308.281 24.474 314.06 28.0079 317.007C58.4061 342.362 110.132 387.046 113.433 389.919Z" fill="black"/>
<path d="M244.267 257.925L231.992 244.151C226.907 238.446 214.745 236.167 204.849 239.081L180.929 246.103L202.443 270.195L244.267 257.925Z" fill="#B9F641" stroke="black" stroke-linecap="round" stroke-linejoin="round"/>
<path d="M180.929 246.102V284.724L202.442 300.384V270.194L180.929 246.102Z" fill="white" stroke="black" stroke-linecap="round" stroke-linejoin="round"/>
<path d="M244.267 257.924V288.114L202.442 300.384V270.194L244.267 257.924Z" fill="#EBE9E9" stroke="black" stroke-linecap="round" stroke-linejoin="round"/>
<path d="M180.966 237.657L202.442 261.768L160.636 274.048L139.16 249.946L180.966 237.657Z" fill="#B9F641" stroke="black" stroke-linecap="round" stroke-linejoin="round"/>
<path d="M160.636 274.047V312.66L202.441 300.38V261.768L160.636 274.047Z" fill="#1B823C" stroke="black" stroke-linecap="round" stroke-linejoin="round"/>
<path d="M160.636 274.047V312.66L139.16 296.99V249.945L160.636 274.047Z" fill="white" stroke="black" stroke-linecap="round" stroke-linejoin="round"/>
<path d="M139.161 241.518L160.637 265.62L118.822 277.899L97.3457 253.797L139.161 241.518Z" fill="#B9F641" stroke="black" stroke-linecap="round" stroke-linejoin="round"/>
<path d="M118.822 277.897V324.943L160.637 312.663V265.618L118.822 277.897Z" fill="#1B823C" stroke="black" stroke-linecap="round" stroke-linejoin="round"/>
<path d="M118.822 277.9V324.946L97.3457 309.276V253.799L118.822 277.9Z" fill="white" stroke="black" stroke-linecap="round" stroke-linejoin="round"/>
<path d="M118.821 324.94V269.472L77.0156 275.383V337.173L118.821 324.94Z" fill="#1B823C" stroke="black" stroke-linecap="round" stroke-linejoin="round"/>
<path d="M62.5137 262.694V318.161C62.5137 319.945 63.228 321.756 64.7506 323.456L76.9784 337.174H77.016V275.375L62.5231 262.684L62.5137 262.694Z" fill="#EBE9E9" stroke="black" stroke-linecap="round" stroke-linejoin="round"/>
<path d="M76.9784 281.707L64.7506 267.99C63.2374 266.291 62.5137 264.479 62.5137 262.696C62.5137 258.484 66.5082 254.431 73.4726 252.386L97.3925 245.354L118.822 269.475L76.969 281.707H76.9784Z" fill="#B9F641" stroke="black" stroke-linecap="round" stroke-linejoin="round"/>
<path d="M244.268 257.922L265.744 282.024L223.938 294.312L202.462 270.202L244.268 257.922Z" fill="#B9F641" stroke="black" stroke-linecap="round" stroke-linejoin="round"/>
<path d="M223.938 294.311V324.436L265.744 312.156V282.022L223.938 294.311Z" fill="#EBE9E9" stroke="black" stroke-linecap="round" stroke-linejoin="round"/>
<path d="M223.938 294.312V324.438L202.462 305.397V270.202L223.938 294.312Z" fill="white" stroke="black" stroke-linecap="round" stroke-linejoin="round"/>
<path d="M202.461 267.68L223.937 291.781L182.122 304.061L160.646 279.959L202.461 267.68Z" fill="#B9F641" stroke="black" stroke-linecap="round" stroke-linejoin="round"/>
<path d="M182.122 304.06V336.724L223.937 324.436V291.78L182.122 304.06Z" fill="#1B823C" stroke="black" stroke-linecap="round" stroke-linejoin="round"/>
<path d="M182.122 304.062V336.726L160.646 315.146V279.96L182.122 304.062Z" fill="white" stroke="black" stroke-linecap="round" stroke-linejoin="round"/>
<path d="M160.647 277.434L182.123 301.536L140.317 313.815L118.841 289.713L160.647 277.434Z" fill="#B9F641" stroke="black" stroke-linecap="round" stroke-linejoin="round"/>
<path d="M140.316 313.813V349.009L182.122 336.729V301.534L140.316 313.813Z" fill="#1B823C" stroke="black" stroke-linecap="round" stroke-linejoin="round"/>
<path d="M140.317 313.816V349.011L118.841 327.431V289.715L140.317 313.816Z" fill="white" stroke="black" stroke-linecap="round" stroke-linejoin="round"/>
<path d="M118.84 287.179L140.317 311.29L98.5016 323.569L77.0254 299.468L118.84 287.179Z" fill="#B9F641" stroke="black" stroke-linecap="round" stroke-linejoin="round"/>
<path d="M98.501 323.568V361.285L140.316 349.005V311.289L98.501 323.568Z" fill="#1B823C" stroke="black" stroke-linecap="round" stroke-linejoin="round"/>
<path d="M98.5016 323.567V361.284L77.0254 337.182V299.466L98.5016 323.567Z" fill="#EBE9E9" stroke="black" stroke-linecap="round" stroke-linejoin="round"/>
<path d="M265.799 282.101L287.276 306.203L245.461 318.482L223.984 294.38L265.799 282.101Z" fill="#B9F641" stroke="black" stroke-linecap="round" stroke-linejoin="round"/>
<path d="M245.461 318.48L245.414 348.558L287.22 336.279L287.276 306.201L245.461 318.48Z" fill="#EBE9E9" stroke="black" stroke-linecap="round" stroke-linejoin="round"/>
<path d="M245.461 318.482L245.414 345.189L223.938 321.078L223.985 294.381L245.461 318.482Z" fill="#EBE9E9" stroke="black" stroke-linecap="round" stroke-linejoin="round"/>
<path d="M223.984 297.747L245.461 321.849L203.655 334.128L182.179 310.027L223.984 297.747Z" fill="#B9F641" stroke="black" stroke-linecap="round" stroke-linejoin="round"/>
<path d="M203.654 334.127L203.598 360.834L245.413 348.554L245.46 321.848L203.654 334.127Z" fill="#1B823C" stroke="black" stroke-linecap="round" stroke-linejoin="round"/>
<path d="M203.655 334.129L203.598 360.837L182.122 336.735L182.178 310.028L203.655 334.129Z" fill="#EBE9E9" stroke="black" stroke-linecap="round" stroke-linejoin="round"/>
<path d="M182.178 313.395L203.655 337.496L161.839 349.776L140.363 325.674L182.178 313.395Z" fill="#B9F641" stroke="black" stroke-linecap="round" stroke-linejoin="round"/>
<path d="M161.84 349.775L161.793 373.11L203.599 360.831L203.655 337.495L161.84 349.775Z" fill="#1B823C" stroke="black" stroke-linecap="round" stroke-linejoin="round"/>
<path d="M161.84 349.777L161.793 373.112L140.316 349.011L140.363 325.675L161.84 349.777Z" fill="#EBE9E9" stroke="black" stroke-linecap="round" stroke-linejoin="round"/>
<path d="M140.363 329.041L161.839 353.142L120.024 365.422L98.5479 341.321L140.363 329.041Z" fill="#B9F641" stroke="black" stroke-linecap="round" stroke-linejoin="round"/>
<path d="M120.025 365.422L119.978 385.386L161.793 373.106L161.84 353.142L120.025 365.422Z" fill="#1B823C" stroke="black" stroke-linecap="round" stroke-linejoin="round"/>
<path d="M120.024 365.422L119.977 385.387L98.501 361.286L98.548 341.321L120.024 365.422Z" fill="#EBE9E9" stroke="black" stroke-linecap="round" stroke-linejoin="round"/>
<path d="M266.9 342.532L266.938 372.657L290.735 365.663C297.69 363.618 301.685 359.565 301.685 355.353L301.722 325.21L266.891 342.532H266.9Z" fill="white" stroke="black" stroke-linecap="round" stroke-linejoin="round"/>
<path d="M287.276 306.195L299.504 319.912C301.017 321.611 301.731 323.423 301.731 325.206C301.731 329.418 297.737 333.47 290.782 335.516L266.984 342.51L245.433 318.427C245.433 318.427 287.323 306.231 287.285 306.185L287.276 306.195Z" fill="#B9F641" stroke="black" stroke-linecap="round" stroke-linejoin="round"/>
<path d="M245.423 318.429L245.386 348.572L266.937 372.655L266.975 342.512L245.423 318.429Z" fill="#EBE9E9" stroke="black" stroke-linecap="round" stroke-linejoin="round"/>
<path d="M245.423 326.86L266.899 350.961L225.084 363.241L203.607 339.139L245.423 326.86Z" fill="#B9F641" stroke="black" stroke-linecap="round" stroke-linejoin="round"/>
<path d="M225.084 363.24L225.122 384.932L266.937 372.653L266.899 350.96L225.084 363.24Z" fill="white" stroke="black" stroke-linecap="round" stroke-linejoin="round"/>
<path d="M225.084 363.243L225.121 384.934L203.645 360.833L203.607 339.141L225.084 363.243Z" fill="#EBE9E9" stroke="black" stroke-linecap="round" stroke-linejoin="round"/>
<path d="M203.607 347.561L225.084 371.672L183.278 383.951L161.802 359.85L203.607 347.561Z" fill="#B9F641" stroke="black" stroke-linecap="round" stroke-linejoin="round"/>
<path d="M183.278 383.95L183.316 397.21L225.122 384.93L225.084 371.671L183.278 383.95Z" fill="white" stroke="black" stroke-linecap="round" stroke-linejoin="round"/>
<path d="M183.278 383.949L183.316 397.209L161.839 373.107L161.802 359.848L183.278 383.949Z" fill="#EBE9E9" stroke="black" stroke-linecap="round" stroke-linejoin="round"/>
<path d="M148.117 392.363L119.978 380.542V385.388L132.252 399.162C135.485 402.785 141.567 405.026 148.117 405.427C151.877 405.661 155.787 405.296 159.396 404.232L183.306 397.21V392.363H148.108H148.117Z" fill="#EBE9E9"/>
<path d="M145.091 400.267V405.151" stroke="white" stroke-miterlimit="10"/>
<path d="M148.118 392.368V405.432C151.877 405.666 155.787 405.301 159.396 404.237L183.307 397.215V392.368H148.108H148.118Z" fill="white"/>
<path d="M148.117 392.363L119.978 380.542V385.388L132.252 399.162C135.485 402.785 141.567 405.026 148.117 405.427C151.877 405.661 155.787 405.296 159.396 404.232L183.306 397.21V392.363H148.108H148.117Z" stroke="black" stroke-linecap="round" stroke-linejoin="round"/>
<path d="M183.316 392.367L159.406 399.39C149.499 402.304 137.347 400.025 132.262 394.32L119.987 380.546L161.812 368.275L183.326 392.367H183.316Z" fill="#B9F641" stroke="black" stroke-linecap="round" stroke-linejoin="round"/>
<path d="M244.229 21.6122L231.954 7.83857C226.869 2.13303 214.707 -0.145166 204.81 2.76831L180.891 9.79099L202.404 33.883L244.229 21.6122Z" fill="white" stroke="black" stroke-linecap="round" stroke-linejoin="round"/>
<path d="M180.891 9.78906L180.928 39.969L202.404 64.071V33.881L180.891 9.78906Z" fill="white" stroke="black" stroke-linecap="round" stroke-linejoin="round"/>
<path d="M244.229 21.6113V51.8013L202.404 64.0721V33.8821L244.229 21.6113Z" fill="#EBE9E9" stroke="black" stroke-linecap="round" stroke-linejoin="round"/>
<path d="M180.929 9.7793L202.405 33.8813L160.599 46.1603L139.123 22.0592L180.929 9.7793Z" fill="white" stroke="black" stroke-linecap="round" stroke-linejoin="round"/>
<path d="M160.6 46.1579V161.474L202.405 149.195V33.8789L160.6 46.1579Z" fill="#1B823C" stroke="black" stroke-linecap="round" stroke-linejoin="round"/>
<path d="M160.599 46.1616V161.477L139.123 137.376V22.0605L160.599 46.1616Z" fill="white" stroke="black" stroke-linecap="round" stroke-linejoin="round"/>
<path d="M139.123 22.0576L160.599 46.1587L118.784 58.4477L97.3076 34.3375L139.123 22.0576Z" fill="white" stroke="black" stroke-linecap="round" stroke-linejoin="round"/>
<path d="M118.784 58.4472V215.046L160.599 202.767V46.1582L118.784 58.4472Z" fill="#1B823C" stroke="black" stroke-linecap="round" stroke-linejoin="round"/>
<path d="M118.784 58.4491V215.048L97.3076 190.947V34.3389L118.784 58.4491Z" fill="white" stroke="black" stroke-linecap="round" stroke-linejoin="round"/>
<path d="M118.783 269.483V58.4434L76.9775 64.3544V281.707L118.783 269.483Z" fill="#1B823C" stroke="black" stroke-linecap="round" stroke-linejoin="round"/>
<path d="M62.4756 51.6553V262.704C62.4756 264.488 63.1899 266.299 64.7125 267.999L76.9403 281.717H76.9779V64.3455L62.485 51.6553H62.4756Z" fill="#EBE9E9" stroke="black" stroke-linecap="round" stroke-linejoin="round"/>
<path d="M76.9403 70.6798L64.7125 56.9618C63.1993 55.2623 62.4756 53.4508 62.4756 51.6672C62.4756 47.4558 66.4701 43.403 73.4346 41.358L97.3544 34.3262L118.784 58.4464L76.9309 70.6798H76.9403Z" fill="white" stroke="black" stroke-linecap="round" stroke-linejoin="round"/>
<path d="M244.229 21.6104L265.705 45.7215L223.899 58.0014L202.423 33.8994L244.229 21.6104Z" fill="white" stroke="black" stroke-linecap="round" stroke-linejoin="round"/>
<path d="M223.899 58.0006V88.134L265.705 75.8551V45.7207L223.899 58.0006Z" fill="#EBE9E9" stroke="black" stroke-linecap="round" stroke-linejoin="round"/>
<path d="M223.899 57.9995V88.1329L202.423 69.0839V33.8975L223.899 57.9995Z" fill="white" stroke="black" stroke-linecap="round" stroke-linejoin="round"/>
<path d="M202.424 33.9033L223.9 58.0053L182.085 70.2843L160.608 46.1832L202.424 33.9033Z" fill="white" stroke="black" stroke-linecap="round" stroke-linejoin="round"/>
<path d="M182.085 70.2858V102.951L223.9 90.6617V58.0068L182.085 70.2858Z" fill="#1B823C" stroke="black" stroke-linecap="round" stroke-linejoin="round"/>
<path d="M182.085 70.2847V102.95L160.608 81.3691V46.1836L182.085 70.2847Z" fill="white" stroke="black" stroke-linecap="round" stroke-linejoin="round"/>
<path d="M160.608 46.1816L182.085 70.2827L140.279 82.5626L118.803 58.4606L160.608 46.1816Z" fill="white" stroke="black" stroke-linecap="round" stroke-linejoin="round"/>
<path d="M140.279 82.5602V117.746L182.085 105.467V70.2803L140.279 82.5602Z" fill="#1B823C" stroke="black" stroke-linecap="round" stroke-linejoin="round"/>
<path d="M140.279 82.5639V117.749L118.803 96.1789V58.4619L140.279 82.5639Z" fill="white" stroke="black" stroke-linecap="round" stroke-linejoin="round"/>
<path d="M118.802 58.4639L140.279 82.5659L98.4635 94.8449L76.9873 70.7438L118.802 58.4639Z" fill="white" stroke="black" stroke-linecap="round" stroke-linejoin="round"/>
<path d="M98.4639 94.8425V174.702L140.279 162.422V82.5635L98.4639 94.8425Z" fill="#1B823C" stroke="black" stroke-linecap="round" stroke-linejoin="round"/>
<path d="M98.4635 94.8452V174.705L76.9873 150.604V70.7441L98.4635 94.8452Z" fill="#EBE9E9" stroke="black" stroke-linecap="round" stroke-linejoin="round"/>
<path d="M265.705 45.7207L287.181 69.8227L245.376 82.1017L223.899 58.0006L265.705 45.7207Z" fill="white" stroke="black" stroke-linecap="round" stroke-linejoin="round"/>
<path d="M245.375 82.1003L245.318 112.178L287.133 99.8991L287.18 69.8213L245.375 82.1003Z" fill="#EBE9E9" stroke="black" stroke-linecap="round" stroke-linejoin="round"/>
<path d="M245.375 82.1031L245.319 108.81L223.843 84.7084L223.899 58.002L245.375 82.1031Z" fill="white" stroke="black" stroke-linecap="round" stroke-linejoin="round"/>
<path d="M223.898 57.9971L245.374 82.0982L203.559 94.3781L182.083 70.2761L223.898 57.9971Z" fill="white" stroke="black" stroke-linecap="round" stroke-linejoin="round"/>
<path d="M203.56 94.3766L203.513 121.083L245.318 108.804L245.375 82.0967L203.56 94.3766Z" fill="#1B823C" stroke="black" stroke-linecap="round" stroke-linejoin="round"/>
<path d="M203.559 94.3794L203.512 121.086L182.036 96.9847L182.083 70.2773L203.559 94.3794Z" fill="white" stroke="black" stroke-linecap="round" stroke-linejoin="round"/>
<path d="M182.084 70.2783L203.56 94.3803L161.755 106.659L140.278 82.5582L182.084 70.2783Z" fill="white" stroke="black" stroke-linecap="round" stroke-linejoin="round"/>
<path d="M161.754 106.658L161.697 129.994L203.512 117.714L203.559 94.3789L161.754 106.658Z" fill="#1B823C" stroke="black" stroke-linecap="round" stroke-linejoin="round"/>
<path d="M161.754 106.66L161.698 129.996L140.222 105.895L140.278 82.5586L161.754 106.66Z" fill="white" stroke="black" stroke-linecap="round" stroke-linejoin="round"/>
<path d="M140.278 82.5576L161.754 106.659L119.939 118.939L98.4629 94.8366L140.278 82.5576Z" fill="white" stroke="black" stroke-linecap="round" stroke-linejoin="round"/>
<path d="M119.939 118.94L119.892 147.337L161.697 135.048L161.754 106.66L119.939 118.94Z" fill="#1B823C" stroke="black" stroke-linecap="round" stroke-linejoin="round"/>
<path d="M119.939 118.94L119.892 147.337L98.416 123.226L98.463 94.8379L119.939 118.94Z" fill="#EBE9E9" stroke="black" stroke-linecap="round" stroke-linejoin="round"/>
<path d="M266.823 106.228L266.86 136.353L290.658 129.359C297.613 127.314 301.608 123.261 301.608 119.05L301.645 88.9062L266.813 106.228H266.823Z" fill="white" stroke="black" stroke-linecap="round" stroke-linejoin="round"/>
<path d="M287.19 69.8831L299.418 83.6011C300.931 85.3007 301.645 87.1122 301.645 88.8957C301.645 93.1072 297.651 97.1599 290.696 99.205L266.898 106.199L245.347 82.1165C245.347 82.1165 287.237 69.9207 287.199 69.874L287.19 69.8831Z" fill="white" stroke="black" stroke-linecap="round" stroke-linejoin="round"/>
<path d="M245.347 82.125L245.31 112.268L266.861 136.351L266.899 106.199L245.347 82.125Z" fill="#EBE9E9" stroke="black" stroke-linecap="round" stroke-linejoin="round"/>
<path d="M245.423 82.0986L266.899 106.201L225.084 118.48L203.607 94.3785L245.423 82.0986Z" fill="white" stroke="black" stroke-linecap="round" stroke-linejoin="round"/>
<path d="M225.084 118.481L225.122 140.183L266.937 127.903L266.899 106.202L225.084 118.481Z" fill="white" stroke="black" stroke-linecap="round" stroke-linejoin="round"/>
<path d="M225.084 118.48L225.121 140.182L203.645 116.08L203.607 94.3789L225.084 118.48Z" fill="#EBE9E9" stroke="black" stroke-linecap="round" stroke-linejoin="round"/>
<path d="M203.607 94.3789L225.084 118.48L183.278 130.769L161.802 106.658L203.607 94.3789Z" fill="white" stroke="black" stroke-linecap="round" stroke-linejoin="round"/>
<path d="M183.278 130.768L183.316 144.028L225.122 131.748L225.084 118.479L183.278 130.768Z" fill="white" stroke="black" stroke-linecap="round" stroke-linejoin="round"/>
<path d="M183.278 130.77L183.316 144.031L161.839 119.929L161.802 106.659L183.278 130.77Z" fill="#EBE9E9" stroke="black" stroke-linecap="round" stroke-linejoin="round"/>
<path d="M148.079 130.768L119.939 118.946V123.793L132.214 137.567C135.447 141.19 141.528 143.431 148.079 143.833C151.839 144.066 155.749 143.702 159.358 142.637L183.268 135.615V130.768H148.07H148.079Z" fill="#EBE9E9"/>
<path d="M145.053 138.671V143.555" stroke="white" stroke-miterlimit="10"/>
<path d="M148.08 130.773V143.838C151.839 144.071 155.749 143.707 159.358 142.642L183.269 135.62V130.773H148.07H148.08Z" fill="white"/>
<path d="M148.079 130.768L119.939 118.946V123.793L132.214 137.567C135.447 141.19 141.528 143.431 148.079 143.833C151.839 144.066 155.749 143.702 159.358 142.637L183.268 135.615V130.768H148.07H148.079Z" stroke="black" stroke-linecap="round" stroke-linejoin="round"/>
<path d="M183.278 130.772L159.368 137.793C149.461 140.707 137.309 138.429 132.224 132.723L119.949 118.95L161.774 106.68L183.287 130.772H183.278Z" fill="white" stroke="black" stroke-linecap="round" stroke-linejoin="round"/>
<path d="M174.119 291.811C146.338 294.098 145.016 305.709 147.827 311.228V323.843C162.221 330.562 185.074 328.337 193.296 326.727V321.879C221.062 321.403 231.753 311.415 230.317 305.787C229.168 301.284 222.073 299.947 218.668 299.842L207.607 302.982V297.138C198.735 296.262 184.463 296.481 178.436 296.7L174.119 291.811Z" fill="#10702E"/>
<mask id="mask0_3360_8793" style="mask-type:alpha" maskUnits="userSpaceOnUse" x="146" y="291" width="85" height="38">
<path d="M174.119 291.812C146.338 294.1 145.016 305.711 147.827 311.23V323.845C162.221 330.564 185.074 328.339 193.296 326.729V321.881C221.062 321.405 231.753 311.417 230.317 305.789C229.168 301.286 222.073 299.949 218.668 299.844L207.607 302.984V297.14C198.735 296.264 184.463 296.483 178.436 296.702L174.119 291.812Z" fill="#095120"/>
</mask>
<g mask="url(#mask0_3360_8793)">
<path d="M223.936 291.785L182.121 304.065V309.278L210.226 301.81" stroke="#259649" stroke-linecap="round" stroke-linejoin="round"/>
<path d="M160.646 277.446L182.122 301.548L140.316 313.827L118.84 289.726L160.646 277.446Z" stroke="#259649" stroke-linecap="round" stroke-linejoin="round"/>
<path d="M140.315 313.821L182.121 301.542V313.268" stroke="#259649" stroke-linecap="round" stroke-linejoin="round"/>
<path d="M203.654 334.133L203.598 360.84L245.413 348.56L245.46 321.854L203.654 334.133Z" stroke="#259649" stroke-linecap="round" stroke-linejoin="round"/>
<path d="M203.654 334.136L182.178 310.035" stroke="#259649" stroke-linecap="round" stroke-linejoin="round"/>
<path d="M182.177 313.397L203.654 337.499L161.838 349.778L140.362 325.676L182.177 313.397Z" stroke="#259649" stroke-linecap="round" stroke-linejoin="round"/>
</g>
<mask id="mask1_3360_8793" style="mask-type:alpha" maskUnits="userSpaceOnUse" x="134" y="170" width="110" height="116">
<path d="M224.741 174.158L229.701 178.742L229.682 178.763L230.076 179.095C239.639 187.135 244.649 200.602 242.567 217.184C240.622 232.674 232.858 247.906 221.859 260.003C210.859 272.1 196.655 281.028 181.869 283.95C167.582 286.774 155.397 283.472 147.057 275.875L146.95 275.777L146.931 275.759L146.927 275.755C146.759 275.6 146.592 275.444 146.427 275.285L146.423 275.282L139.563 268.832L140.291 268.869L141.224 268.916L140.746 268.114C136.122 260.354 134.099 250.267 135.557 238.653C137.502 223.163 145.266 207.93 156.265 195.833C167.265 183.736 181.469 174.808 196.255 171.886C206.981 169.767 216.521 171.1 224.134 175.106L225.175 175.654L224.847 174.524L224.741 174.158Z" fill="#D9D9D9" stroke="black"/>
</mask>
<g mask="url(#mask1_3360_8793)">
<path d="M224.741 174.158L229.701 178.742L229.682 178.763L230.076 179.095C239.639 187.135 244.649 200.602 242.567 217.184C240.622 232.674 232.858 247.906 221.859 260.003C210.859 272.1 196.655 281.028 181.869 283.95C167.582 286.774 155.397 283.472 147.057 275.875L146.95 275.777L146.931 275.759L146.927 275.755C146.759 275.6 146.592 275.444 146.427 275.285L146.423 275.282L139.563 268.832L140.291 268.869L141.224 268.916L140.746 268.114C136.122 260.354 134.099 250.267 135.557 238.653C137.502 223.163 145.266 207.93 156.265 195.833C167.265 183.736 181.469 174.808 196.255 171.886C206.981 169.767 216.521 171.1 224.134 175.106L225.175 175.654L224.847 174.524L224.741 174.158Z" fill="#C2C8CF" stroke="black"/>
<path d="M194.865 258.521L212.352 275.154L158.408 294.047L131.63 262.429L194.865 258.521Z" fill="black"/>
<path d="M204.479 255.561L217.058 268.279L223.322 262.716L210.231 248.832L204.479 255.561Z" fill="black"/>
<path d="M224.741 174.158L229.701 178.742L229.682 178.763L230.076 179.095C239.639 187.135 244.649 200.602 242.567 217.184C240.622 232.674 232.858 247.906 221.859 260.003C210.859 272.1 196.655 281.028 181.869 283.95C167.582 286.774 155.397 283.472 147.057 275.875L146.95 275.777L146.931 275.759L146.927 275.755C146.759 275.6 146.592 275.444 146.427 275.285L146.423 275.282L139.563 268.832L140.291 268.869L141.224 268.916L140.746 268.114C136.122 260.354 134.099 250.267 135.557 238.653C137.502 223.163 145.266 207.93 156.265 195.833C167.265 183.736 181.469 174.808 196.255 171.886C206.981 169.767 216.521 171.1 224.134 175.106L225.175 175.654L224.847 174.524L224.741 174.158Z" stroke="black"/>
</g>
<path d="M232.931 208.36C229.044 239.319 201.924 269.124 172.387 274.962C142.849 280.799 122.023 260.469 125.91 229.51C129.797 198.552 156.917 168.746 186.454 162.909C215.992 157.072 236.818 177.402 232.931 208.36Z" fill="white" stroke="black"/>
<path d="M173.212 268.39C199.331 263.228 223.258 236.892 226.685 209.595C230.112 182.299 211.749 164.32 185.629 169.482C159.51 174.644 135.583 200.98 132.156 228.277C128.729 255.573 147.093 273.552 173.212 268.39Z" fill="#B9F641" stroke="black"/>
<rect width="1.61705" height="34.3423" transform="matrix(0.994592 -0.10386 -0.192004 0.981394 196.905 201)" fill="#729F01"/>
<path d="M206.29 249.665C196.245 259.695 183.04 267.732 169.59 269.136C156.141 270.541 145.199 265.026 138.741 256.72L138.906 255.88C140.178 249.374 145.433 243.122 152.091 240.19L164.876 234.559C172.838 231.053 181.023 230.198 187.917 232.153L198.986 235.293C204.751 236.928 207.727 242.321 206.454 248.826L206.29 249.665Z" fill="black"/>
<path d="M171.71 217.049L171.213 217.101L171.117 217.592L167.811 234.491C166.9 239.144 169.985 242.518 174.701 242.025C179.417 241.533 183.978 237.361 184.888 232.708L188.195 215.809L188.291 215.318L187.793 215.37L171.71 217.049Z" fill="white" stroke="black"/>
<mask id="mask2_3360_8793" style="mask-type:alpha" maskUnits="userSpaceOnUse" x="168" y="215" width="20" height="27">
<path d="M171.612 217.54L187.695 215.861L184.389 232.76C183.532 237.142 179.236 241.071 174.795 241.534C170.354 241.998 167.449 238.822 168.306 234.439L171.612 217.54Z" fill="white"/>
</mask>
<g mask="url(#mask2_3360_8793)">
<path d="M182.523 218.139L188.153 217.551L183.294 242.385L180.479 242.679L177.665 242.973L182.523 218.139Z" fill="#B9F641"/>
</g>
<g filter="url(#filter0_i_3360_8793)">
<path d="M171.381 194.569C171.911 191.859 174.567 189.43 177.314 189.143L198.074 186.975L193.09 212.449C191.817 218.953 185.442 224.784 178.851 225.472L176.988 225.667C170.396 226.355 166.084 221.641 167.357 215.136L171.381 194.569Z" fill="white"/>
</g>
<path d="M198.571 186.923L198.667 186.432L198.17 186.484L177.41 188.652C174.389 188.968 171.467 191.64 170.884 194.621L166.86 215.188C165.534 221.964 170.026 226.875 176.892 226.158L178.755 225.963C185.621 225.246 192.262 219.172 193.587 212.397L198.571 186.923Z" stroke="black"/>
<path d="M179.909 199.298C181.059 193.42 186.82 188.151 192.778 187.529L198.074 186.976L195.298 201.167L182.81 202.471C180.825 202.678 179.526 201.258 179.909 199.298Z" fill="#D2D2D2"/>
<path d="M170.953 196.758C171.719 192.839 175.56 189.326 179.532 188.911L198.074 186.975L197.601 189.389C196.329 195.893 189.954 201.724 183.362 202.412L176.755 203.102C172.784 203.517 170.186 200.676 170.953 196.758Z" fill="white"/>
<path opacity="0.8" d="M166.933 201.209C167.569 197.957 170.757 195.041 174.053 194.697L194.283 192.585C197.579 192.24 199.735 194.598 199.099 197.85L197.586 205.585C196.949 208.838 193.762 211.753 190.466 212.097L189.603 212.187C188.813 212.27 188.087 212.119 187.517 211.753L183.321 209.067C182.154 208.32 180.403 208.502 178.889 209.53L173.445 213.223C172.704 213.725 171.888 214.037 171.098 214.119L170.235 214.21C166.939 214.554 164.783 212.196 165.419 208.944L166.933 201.209Z" fill="#B9F641" stroke="black"/>
<path d="M104.7 200.529L114.487 208.143L99.5712 215.648L89.7952 208.041L104.7 200.529Z" fill="black" stroke="black" stroke-linecap="round" stroke-linejoin="round"/>
<path d="M105.181 225.012L89.7959 208.041L99.5719 215.648L105.181 225.012Z" fill="black" stroke="black" stroke-linecap="round" stroke-linejoin="round"/>
<path d="M105.181 225.01L114.488 208.141L99.5719 215.646L105.181 225.01Z" fill="#B9F641" stroke="black" stroke-linecap="round" stroke-linejoin="round"/>
<path d="M97.4069 182.928L89.0066 203.77L98.7844 211.387L97.4069 182.928Z" fill="#1B823C" stroke="black" stroke-linecap="round" stroke-linejoin="round"/>
<path d="M97.4075 182.931L113.701 203.885L98.7849 211.39L97.4075 182.931Z" fill="#B9F641" stroke="black" stroke-linecap="round" stroke-linejoin="round"/>
<path d="M269.241 277.572L273.931 286.237L260.632 286.987L255.933 278.322L269.241 277.572Z" fill="black" stroke="black" stroke-linecap="round" stroke-linejoin="round"/>
<path d="M261.716 295.594L255.935 278.321L260.634 286.987L261.716 295.594Z" fill="black" stroke="black" stroke-linecap="round" stroke-linejoin="round"/>
<path d="M261.716 295.593L273.932 286.234L260.634 286.985L261.716 295.593Z" fill="#B9F641" stroke="black" stroke-linecap="round" stroke-linejoin="round"/>
<path d="M269.567 262.404L256.73 274.956L261.431 283.613L269.567 262.404Z" fill="#B9F641" stroke="black" stroke-linecap="round" stroke-linejoin="round"/>
<path d="M269.566 262.406L274.727 282.873L261.43 283.614L269.566 262.406Z" fill="#B9F641" stroke="black" stroke-linecap="round" stroke-linejoin="round"/>
<defs>
<filter id="filter0_i_3360_8793" x="166.121" y="185.89" width="33.1396" height="40.8311" filterUnits="userSpaceOnUse" color-interpolation-filters="sRGB">
<feFlood flood-opacity="0" result="BackgroundImageFix"/>
<feBlend mode="normal" in="SourceGraphic" in2="BackgroundImageFix" result="shape"/>
<feColorMatrix in="SourceAlpha" type="matrix" values="0 0 0 0 0 0 0 0 0 0 0 0 0 0 0 0 0 0 127 0" result="hardAlpha"/>
<feOffset dx="-5" dy="-4"/>
<feComposite in2="hardAlpha" operator="arithmetic" k2="-1" k3="1"/>
<feColorMatrix type="matrix" values="0 0 0 0 0.72549 0 0 0 0 0.964706 0 0 0 0 0.254902 0 0 0 1 0"/>
<feBlend mode="normal" in2="shape" result="effect1_innerShadow_3360_8793"/>
</filter>
</defs>
</svg>
