<svg width="355" height="407" viewBox="0 0 355 407" fill="none" xmlns="http://www.w3.org/2000/svg">
<mask id="mask0_3360_9181" style="mask-type:alpha" maskUnits="userSpaceOnUse" x="31" y="233" width="48" height="61">
<path d="M39.284 263.449C31.1456 253.548 30.9133 240.369 31.9253 234.115L77.2435 285.297L65.1876 292.43C59.938 286.917 47.8537 273.876 39.284 263.449Z" fill="black" stroke="#66DD8C" stroke-linecap="round"/>
</mask>
<g mask="url(#mask0_3360_9181)">
<path d="M39.284 263.449C31.1456 253.548 30.9133 240.369 31.9253 234.115L77.2435 285.297L65.1876 292.43C59.938 286.917 47.8537 273.876 39.284 263.449Z" fill="#EBE9E9" stroke="black" stroke-linecap="round"/>
<path d="M63.8207 271.84C48.6249 272.117 39.5678 265.556 36.9267 262.228L55.9351 286.22L75.533 285.292L63.8207 271.84Z" fill="black"/>
<path d="M39.284 263.449C31.1456 253.548 30.9133 240.369 31.9253 234.115L77.2435 285.297L65.1876 292.43C59.938 286.917 47.8537 273.876 39.284 263.449Z" stroke="#2D3033" stroke-linecap="round"/>
</g>
<mask id="mask1_3360_9181" style="mask-type:alpha" maskUnits="userSpaceOnUse" x="48" y="168" width="72" height="132">
<path d="M93.6702 296.432L50.9994 247.574C47.2425 234.409 50.6053 218.663 56.4115 204.255C62.1084 190.119 70.122 177.358 75.8993 169.748L118.456 215.172C89.4179 259.365 89.6885 285.017 93.6702 296.432Z" fill="black" stroke="#66DD8C" stroke-linecap="round"/>
</mask>
<g mask="url(#mask1_3360_9181)">
<path d="M93.6702 296.432L50.9994 247.574C47.2425 234.409 50.6053 218.663 56.4115 204.255C62.1084 190.119 70.122 177.358 75.8993 169.748L118.456 215.172C89.4179 259.365 89.6885 285.017 93.6702 296.432Z" fill="#EBE9E9" stroke="black" stroke-linecap="round"/>
<path d="M59.3993 207.885C66.9276 188.655 72.2659 180.725 83.1681 166.538L126.398 212.68C103.697 246.159 103.697 260.123 103.697 260.123L60.8568 215.176C59.0017 213.23 58.4191 210.389 59.3993 207.885Z" fill="black"/>
<path d="M93.6702 296.432L50.9994 247.574C47.2425 234.409 50.6053 218.663 56.4115 204.255C62.1084 190.119 70.122 177.358 75.8993 169.748L118.456 215.172C89.4179 259.365 89.6885 285.017 93.6702 296.432Z" stroke="black" stroke-linecap="round"/>
</g>
<mask id="mask2_3360_9181" style="mask-type:alpha" maskUnits="userSpaceOnUse" x="69" y="105" width="115" height="146">
<path d="M112.211 249.51L69.6793 205.242C75.4668 187.491 88.2288 166.985 102.437 148.798C116.563 130.715 132.077 114.977 143.503 106.557L183.157 154.315C177.733 157.579 171.446 163.165 164.874 170.158C158.09 177.378 150.979 186.122 144.17 195.422C130.767 213.728 118.507 234.222 112.211 249.51Z" fill="#66DD8C" stroke="black" stroke-linecap="round"/>
</mask>
<g mask="url(#mask2_3360_9181)">
<path d="M111.597 249.417L69.065 205.149C74.8525 187.398 87.6146 166.892 101.823 148.705C115.949 130.622 131.463 114.884 142.889 106.465L182.543 154.222C177.118 157.487 170.831 163.072 164.26 170.066C157.476 177.285 150.365 186.03 143.556 195.329C130.152 213.635 117.893 234.129 111.597 249.417Z" fill="#EBE9E9" stroke="black" stroke-linecap="round"/>
<path d="M93.9639 180.277L130.148 226.564L143.776 216.225L111.351 133.521C106.652 134.617 96.2665 140.193 92.3192 153.727C88.3719 167.26 91.771 177.066 93.9639 180.277Z" fill="black"/>
<path d="M107.567 152.915C115.397 139.443 133.036 120.948 154.336 105.464L194.085 153.361C172.184 166.077 162.801 171.555 150.438 202.17L108.548 159.607C106.78 157.811 106.301 155.094 107.567 152.915Z" fill="black"/>
<path d="M112.211 249.51L69.6793 205.242C75.4668 187.491 88.2288 166.985 102.437 148.798C116.563 130.715 132.077 114.977 143.503 106.557L183.157 154.315C177.733 157.579 171.446 163.165 164.874 170.158C158.09 177.378 150.979 186.122 144.17 195.422C130.767 213.728 118.507 234.222 112.211 249.51Z" stroke="black" stroke-linecap="round"/>
</g>
<path d="M161.832 189.059L118.692 146.19C143.775 113.394 193.168 76.2851 214.484 62.0569L256.817 113.301C254.647 113.864 252.031 115.002 249.079 116.586C245.748 118.375 241.96 120.75 237.863 123.56C229.67 129.179 220.217 136.553 210.671 144.489C191.788 160.185 172.507 178.106 161.832 189.059Z" fill="black" stroke="#B9F641" stroke-linecap="round"/>
<path d="M208.849 152.542L166.484 106.816C204.57 72.6812 252.978 53.2721 272.792 47.7216L317.045 102.925C295.413 104.262 273.741 112.601 254.817 122.615C235.821 132.668 219.56 144.427 208.849 152.542Z" fill="black" stroke="#B9F641" stroke-linecap="round"/>
<path d="M262.899 127.222L221.422 79.419C242.832 68.3712 260.61 64.0795 274.098 63.2263C287.659 62.3686 296.849 64.987 301.057 67.6696L341.372 113.974C330.631 108.703 315.97 109.515 301.806 112.745C286.675 116.197 271.968 122.443 262.899 127.222Z" fill="black" stroke="#B9F641" stroke-linecap="round"/>
<path d="M283.679 84.3828C281.6 81.2629 273.844 75.3901 259.459 76.8586L282.762 103.464" stroke="#B9F641" stroke-linecap="round"/>
<path d="M250.904 219.158C255.678 227.147 256.313 240.572 252.297 248.975L214.352 328.48C210.337 336.883 203.148 337.228 198.374 329.225L106.492 175.528C101.718 167.539 101.083 154.113 105.098 145.71L143.043 66.2054C147.058 57.8024 154.247 57.4574 159.021 65.4603L250.904 219.158Z" fill="white" stroke="black" stroke-miterlimit="10"/>
<path d="M119.4 115.745L228.738 298.339L218.335 320.136L108.997 137.541L119.4 115.745Z" fill="black"/>
<mask id="mask3_3360_9181" style="mask-type:alpha" maskUnits="userSpaceOnUse" x="22" y="269" width="120" height="67">
<path d="M66.0693 330.502L24.7651 282.744C37.3955 287.83 52.6949 286.992 66.8274 283.82C81.5082 280.525 95.0131 274.692 103.124 270.236L140.886 318.317C121.978 330.313 106.323 334.364 93.8916 334.922C81.4444 335.481 72.1905 332.541 66.0693 330.502Z" fill="black" stroke="black" stroke-linecap="round"/>
</mask>
<g mask="url(#mask3_3360_9181)">
<path d="M66.0693 330.502L24.7651 282.744C37.3955 287.83 52.6949 286.992 66.8274 283.82C81.5082 280.525 95.0131 274.692 103.124 270.236L140.886 318.317C121.978 330.313 106.323 334.364 93.8916 334.922C81.4444 335.481 72.1905 332.541 66.0693 330.502Z" fill="black" stroke="black" stroke-linecap="round"/>
<ellipse cx="10.1884" cy="19.8404" rx="10.1884" ry="19.8404" transform="matrix(0.973372 -0.22923 0.229234 0.973371 57.8525 288.62)" fill="#35404D"/>
<path d="M66.0693 330.502L24.7651 282.744C37.3955 287.83 52.6949 286.992 66.8274 283.82C81.5082 280.525 95.0131 274.692 103.124 270.236L140.886 318.317C121.978 330.313 106.323 334.364 93.8916 334.922C81.4444 335.481 72.1905 332.541 66.0693 330.502Z" stroke="black" stroke-linecap="round"/>
</g>
<mask id="mask4_3360_9181" style="mask-type:alpha" maskUnits="userSpaceOnUse" x="51" y="241" width="150" height="110">
<path d="M93.3617 349.664L51.9776 301.746C71.2514 296.648 92.7133 285.738 111.758 274.141C130.813 262.536 147.482 250.222 157.168 242.295L199.316 291.945C170.85 318.759 121.141 340.09 93.3617 349.664Z" fill="black" stroke="#66DD8C" stroke-linecap="round"/>
</mask>
<g mask="url(#mask4_3360_9181)">
<path d="M93.2933 349.218L51.9093 301.301C71.1831 296.202 92.645 285.293 111.689 273.695C130.745 262.091 147.414 249.777 157.1 241.85L199.247 291.5C170.781 318.314 121.073 339.644 93.2933 349.218Z" fill="black" stroke="#B9F641" stroke-linecap="round"/>
<ellipse cx="126.713" cy="301.065" rx="17.1855" ry="28.2715" fill="#35404D"/>
<path d="M93.3617 349.664L51.9776 301.746C71.2514 296.648 92.7133 285.738 111.758 274.141C130.813 262.536 147.482 250.222 157.168 242.295L199.316 291.945C170.85 318.759 121.141 340.09 93.3617 349.664Z" stroke="#B9F641" stroke-linecap="round"/>
</g>
<mask id="mask5_3360_9181" style="mask-type:alpha" maskUnits="userSpaceOnUse" x="107" y="195" width="147" height="141">
<path d="M149.593 334.357L107.853 286.426C146.566 263.76 190.937 220.945 211.441 196.4L253.296 243.646C250.012 249.252 244.141 256.36 236.611 264.214C228.947 272.208 219.589 280.951 209.546 289.638C189.594 306.895 166.966 323.907 149.593 334.357Z" fill="#66DD8C" stroke="black" stroke-linecap="round"/>
</mask>
<g mask="url(#mask5_3360_9181)">
<path d="M149.593 334.357L107.853 286.426C146.566 263.76 190.937 220.945 211.441 196.4L253.296 243.646C250.012 249.252 244.141 256.36 236.611 264.214C228.947 272.208 219.589 280.951 209.546 289.638C189.594 306.895 166.966 323.907 149.593 334.357Z" fill="#B9F641" stroke="black" stroke-linecap="round"/>
<ellipse cx="182.5" cy="270.972" rx="17.3774" ry="31.2729" fill="#259649"/>
<path d="M127.769 282.89C125.677 283.884 123.253 285.59 121.715 286.741C120.842 287.394 120.703 288.628 121.39 289.475C122.61 290.979 124.452 293.189 125.529 294.193" stroke="#259649" stroke-linecap="round"/>
<path d="M147.172 320.472C148.545 322.284 150.17 324.132 151.127 325.192C151.629 325.747 152.401 325.947 153.072 325.617C154.147 325.088 155.966 324.023 158.407 321.981" stroke="#259649" stroke-linecap="round"/>
<path d="M167.214 248.354C200.698 219.421 229.866 184.075 245.107 160.254L277.811 208.205C267.718 231.036 230.73 275.675 203.858 296.577L166.795 254.054C165.328 252.371 165.524 249.814 167.214 248.354Z" fill="black"/>
<path d="M149.593 334.357L107.853 286.426C146.566 263.76 190.937 220.945 211.441 196.4L253.296 243.646C250.012 249.252 244.141 256.36 236.611 264.214C228.947 272.208 219.589 280.951 209.546 289.638C189.594 306.895 166.966 323.907 149.593 334.357Z" stroke="black" stroke-linecap="round"/>
</g>
<mask id="mask6_3360_9181" style="mask-type:alpha" maskUnits="userSpaceOnUse" x="180" y="143" width="119" height="149">
<path d="M223.324 290.551L181.367 242.51C221.347 203.162 243.916 170.539 255.895 144.253L297.679 191.417C293.705 204.282 283.781 220.768 270.494 238.21C257.219 255.635 240.618 273.975 223.324 290.551Z" fill="#66DD8C" stroke="black" stroke-linecap="round"/>
</mask>
<g mask="url(#mask6_3360_9181)">
<path d="M223.324 290.551L181.367 242.51C221.347 203.162 243.916 170.539 255.895 144.253L297.679 191.417C293.705 204.282 283.781 220.768 270.494 238.21C257.219 255.635 240.618 273.975 223.324 290.551Z" fill="#B9F641" stroke="black" stroke-linecap="round"/>
<ellipse cx="16.7004" cy="30.959" rx="16.7004" ry="30.959" transform="matrix(0.995137 -0.0984995 0.0985012 0.995137 225.896 190.444)" fill="#259649"/>
<path d="M198.941 236.669C197.111 238.414 195.335 240.042 194.147 241.12C193.339 241.853 193.256 243.096 193.966 243.924C195.205 245.37 197.042 247.511 198.053 248.684" stroke="#259649" stroke-linecap="round"/>
<path d="M219.017 272.025C220.255 273.522 221.735 275.383 222.819 276.759C223.604 277.754 225.105 277.788 225.932 276.827C226.886 275.717 228.192 274.206 229.633 272.554" stroke="#259649" stroke-linecap="round"/>
<path d="M237.207 184.349C252.196 165.7 260.118 147.554 263.329 133.863L305.831 185.156C301.682 199.239 295.305 217.578 276.958 235.667L237.266 189.552C235.988 188.067 235.98 185.876 237.207 184.349Z" fill="black"/>
<path d="M223.324 290.551L181.367 242.51C221.347 203.162 243.916 170.539 255.895 144.253L297.679 191.417C293.705 204.282 283.781 220.768 270.494 238.21C257.219 255.635 240.618 273.975 223.324 290.551Z" stroke="black" stroke-linecap="round"/>
</g>
<mask id="mask7_3360_9181" style="mask-type:alpha" maskUnits="userSpaceOnUse" x="246" y="102" width="72" height="128">
<path d="M247.122 179.698L290.428 228.528C314.821 192.469 321.14 161.802 315.174 149.65L273.194 102.809C279.204 128.969 258.317 164.968 247.122 179.698Z" fill="#66DD8C" stroke="black" stroke-linecap="round"/>
</mask>
<g mask="url(#mask7_3360_9181)">
<path d="M247.122 179.698L290.428 228.528C314.821 192.469 321.14 161.802 315.174 149.65L273.194 102.809C279.204 128.969 258.317 164.968 247.122 179.698Z" fill="#B9F641" stroke="black" stroke-linecap="round"/>
<ellipse cx="9.61754" cy="30.1205" rx="9.61754" ry="30.1205" transform="matrix(0.894261 -0.447546 0.447552 0.894258 269.633 137.864)" fill="#259649"/>
<path d="M262.137 171.537C260.674 173.868 259.469 175.668 258.701 176.789C258.171 177.562 258.225 178.601 258.846 179.303C259.922 180.519 261.568 182.386 262.59 183.572" stroke="#259649" stroke-linecap="round"/>
<path d="M284.253 207.736C285.292 208.991 286.504 210.604 287.509 211.979C288.429 213.238 290.382 213.043 291.002 211.611C291.577 210.284 292.273 208.664 292.988 206.973" stroke="#259649" stroke-linecap="round"/>
<path d="M279.816 128.605L320.614 174.891C319.671 156.006 319.783 150.927 313.818 138.775L276.514 102.886C279.942 110.833 279.511 114.996 278.827 125.709C278.759 126.766 279.116 127.811 279.816 128.605Z" fill="black"/>
<path d="M247.122 179.698L290.428 228.528C314.821 192.469 321.14 161.802 315.174 149.65L273.194 102.809C279.204 128.969 258.317 164.968 247.122 179.698Z" stroke="black" stroke-linecap="round"/>
</g>
<mask id="mask8_3360_9181" style="mask-type:alpha" maskUnits="userSpaceOnUse" x="288" y="89" width="48" height="77">
<path d="M291.593 116.025L334.207 164.082C336.91 149.815 329.576 136.736 325.571 131.98L288.589 90.3057C293.245 99.3165 292.531 111.206 291.593 116.025Z" fill="#66DD8C" stroke="black" stroke-linecap="round"/>
</mask>
<g mask="url(#mask8_3360_9181)">
<path d="M291.593 116.025L334.207 164.082C336.91 149.815 329.576 136.736 325.571 131.98L288.589 90.3057C293.245 99.3165 292.531 111.206 291.593 116.025Z" fill="#B9F641" stroke="black" stroke-linecap="round"/>
<path d="M298.147 112.245C298.31 113.447 298.308 114.384 298.266 115.018C298.227 115.622 298.361 116.244 298.733 116.721C299.61 117.845 301.283 119.967 302.431 121.299" stroke="#259649" stroke-linecap="round"/>
<path d="M324.66 145.723C326.471 147.912 328.924 150.825 329.82 151.888C329.939 152.03 330.128 151.949 330.098 151.766C329.975 151.025 329.627 149.344 328.644 145.723" stroke="#259649" stroke-linecap="round"/>
<path d="M291.593 116.025L334.207 164.082C336.91 149.815 329.576 136.736 325.571 131.98L288.589 90.3057C293.245 99.3165 292.531 111.206 291.593 116.025Z" stroke="black" stroke-linecap="round"/>
</g>
<mask id="mask9_3360_9181" style="mask-type:alpha" maskUnits="userSpaceOnUse" x="239" y="304" width="83" height="88">
<path d="M310.475 310.991L310.457 311.012L310.848 311.342C317.97 317.369 321.713 327.474 320.158 339.939C318.705 351.584 312.905 363.041 304.683 372.141C296.461 381.243 285.849 387.954 274.81 390.149C264.146 392.27 255.065 389.789 248.855 384.094L248.775 384.021L248.762 384.008L248.758 384.005C248.632 383.889 248.508 383.771 248.385 383.652L248.381 383.649L243.487 379.017L243.696 379.028L244.626 379.075L244.152 378.273C240.705 372.453 239.194 364.879 240.283 356.148C241.735 344.503 247.536 333.046 255.758 323.945C263.98 314.844 274.592 308.133 285.631 305.937C293.637 304.345 300.75 305.348 306.421 308.351L307.462 308.903L307.18 307.926L310.475 310.991Z" fill="#D9D9D9" stroke="black"/>
</mask>
<g mask="url(#mask9_3360_9181)">
<path d="M310.475 310.991L310.457 311.012L310.848 311.342C317.97 317.369 321.713 327.474 320.158 339.939C318.705 351.584 312.905 363.041 304.683 372.141C296.461 381.243 285.849 387.954 274.81 390.149C264.146 392.27 255.065 389.789 248.855 384.094L248.775 384.021L248.762 384.008L248.758 384.005C248.632 383.889 248.508 383.771 248.385 383.652L248.381 383.649L243.487 379.017L243.696 379.028L244.626 379.075L244.152 378.273C240.705 372.453 239.194 364.879 240.283 356.148C241.735 344.503 247.536 333.046 255.758 323.945C263.98 314.844 274.592 308.133 285.631 305.937C293.637 304.345 300.75 305.348 306.421 308.351L307.462 308.903L307.18 307.926L310.475 310.991Z" fill="#C2C8CF" stroke="black"/>
<path d="M284.566 371.103L297.659 383.638L257.268 397.876L237.218 374.048L284.566 371.103Z" fill="black"/>
<path d="M291.764 368.875L301.182 378.459L305.873 374.267L296.071 363.804L291.764 368.875Z" fill="black"/>
<path d="M310.475 310.991L310.457 311.012L310.848 311.342C317.97 317.369 321.713 327.474 320.158 339.939C318.705 351.584 312.905 363.041 304.683 372.141C296.461 381.243 285.849 387.954 274.81 390.149C264.146 392.27 255.065 389.789 248.855 384.094L248.775 384.021L248.762 384.008L248.758 384.005C248.632 383.889 248.508 383.771 248.385 383.652L248.381 383.649L243.487 379.017L243.696 379.028L244.626 379.075L244.152 378.273C240.705 372.453 239.194 364.879 240.283 356.148C241.735 344.503 247.536 333.046 255.758 323.945C263.98 314.844 274.592 308.133 285.631 305.937C293.637 304.345 300.75 305.348 306.421 308.351L307.462 308.903L307.18 307.926L310.475 310.991Z" stroke="black"/>
</g>
<path d="M312.942 333.33C310.04 356.601 289.789 378.991 267.748 383.376C245.706 387.76 230.153 372.491 233.056 349.221C235.959 325.95 256.209 303.559 278.251 299.175C300.292 294.791 315.845 310.06 312.942 333.33Z" fill="white" stroke="black"/>
<mask id="mask10_3360_9181" style="mask-type:alpha" maskUnits="userSpaceOnUse" x="242" y="309" width="62" height="65">
<path d="M302.257 335.456C300.13 352.515 285.287 368.919 269.142 372.13C252.997 375.342 241.596 364.158 243.724 347.099C245.851 330.04 260.694 313.636 276.839 310.425C292.984 307.213 304.385 318.397 302.257 335.456Z" fill="#66DD8C" stroke="black"/>
</mask>
<g mask="url(#mask10_3360_9181)">
<path d="M302.257 335.456C300.13 352.515 285.287 368.919 269.142 372.13C252.997 375.342 241.596 364.158 243.724 347.099C245.851 330.04 260.694 313.636 276.839 310.425C292.984 307.213 304.385 318.397 302.257 335.456Z" fill="#B9F641" stroke="black"/>
<path d="M304.252 337.234C302.213 353.581 287.99 369.299 272.52 372.377C257.05 375.454 246.125 364.737 248.164 348.39C250.203 332.043 264.426 316.324 279.896 313.247C295.365 310.17 306.291 320.886 304.252 337.234Z" stroke="white"/>
<path d="M302.257 335.456C300.13 352.515 285.287 368.919 269.142 372.13C252.997 375.342 241.596 364.158 243.724 347.099C245.851 330.04 260.694 313.636 276.839 310.425C292.984 307.213 304.385 318.397 302.257 335.456Z" stroke="black"/>
</g>
<path d="M266.524 330.638L272.848 330.307L274.567 325.159L275.593 323.585L278.181 324.969L276.461 330.117L279.171 329.975L281.917 323.253L284.504 324.638L282.785 329.786C291.817 329.313 289.798 337.775 285.178 339.857C284.904 339.98 285.298 340.345 285.298 340.345C290.635 341.52 287.256 353.155 274.76 353.81L273.041 358.958L269.427 359.148L267.225 357.769L271.147 354L268.437 354.142L266.717 359.29L263.103 359.479L260.549 358.063L264.823 354.331L258.499 354.663L255.945 353.241L260.549 351.183L262.356 351.088C263.35 351.036 264.421 350.222 264.736 349.278L269.321 335.55C269.636 334.606 269.081 333.876 268.088 333.928L265.378 334.07L262.78 332.698L266.524 330.638ZM275.315 333.549L273.022 340.414C273.022 340.414 281.009 340.416 282.299 336.555C283.588 332.694 275.315 333.549 275.315 333.549ZM272.162 342.988L269.583 350.71C269.583 350.71 279.52 350.189 280.81 346.328C282.099 342.467 272.162 342.988 272.162 342.988Z" fill="black"/>
<path d="M271.93 352.444L270.29 357.355L267.176 357.518L268.816 352.607L268.895 352.37L268.646 352.383L265.935 352.525L265.686 352.538L265.607 352.775L263.966 357.686L260.852 357.849L262.492 352.938L262.572 352.701L262.322 352.714L256.318 353.029L258.084 350.03L259.696 349.946C260.828 349.887 262.046 348.96 262.405 347.885L266.991 334.157C267.35 333.082 266.718 332.252 265.587 332.311L263.126 332.44L264.114 329.482L270.188 329.164L270.438 329.151L270.517 328.914L272.157 324.003L275.271 323.84L273.631 328.751L273.552 328.988L273.801 328.975L276.512 328.833L276.761 328.82L276.84 328.583L278.481 323.672L281.595 323.508L279.955 328.419L279.875 328.656L280.125 328.643C284.985 328.389 286.523 330.768 286.224 333.248C286.073 334.498 285.457 335.777 284.559 336.777C283.665 337.772 282.493 338.493 281.197 338.659L281.075 339.131C282.823 338.939 283.968 339.6 284.507 340.722C285.048 341.849 284.974 343.44 284.264 345.084C283.555 346.724 282.216 348.409 280.234 349.728C278.252 351.048 275.602 352.018 272.259 352.193L272.009 352.207L271.93 352.444ZM272.734 332.17L272.8 331.934L272.56 331.958L272.485 332.183L270.192 339.047L270.117 339.271L270.349 339.271L270.442 339.034C270.349 339.271 270.349 339.271 270.349 339.271L270.349 339.271L270.351 339.271L270.355 339.271L270.374 339.271C270.389 339.271 270.413 339.271 270.443 339.27C270.503 339.269 270.591 339.267 270.703 339.264C270.927 339.256 271.248 339.241 271.638 339.211C272.414 339.15 273.468 339.028 274.566 338.783C275.66 338.539 276.821 338.167 277.802 337.595C278.794 337.016 279.614 336.223 279.968 335.163C280.322 334.102 280.012 333.368 279.379 332.875C278.752 332.387 277.802 332.126 276.835 331.99C275.865 331.853 274.856 331.839 274.093 331.859C273.711 331.869 273.389 331.888 273.162 331.904C273.048 331.912 272.958 331.919 272.896 331.925C272.865 331.927 272.842 331.93 272.825 331.931L272.807 331.933L272.802 331.933L272.8 331.934L272.8 331.934C272.8 331.934 272.8 331.934 272.734 332.17ZM269.661 341.371L269.411 341.384L269.332 341.621L266.753 349.343L266.674 349.58L266.923 349.567L267.003 349.33C266.923 349.567 266.923 349.567 266.924 349.567L266.924 349.567L266.926 349.567L266.931 349.567L266.954 349.565C266.963 349.565 266.975 349.564 266.989 349.563C267.004 349.562 267.02 349.561 267.039 349.56C267.113 349.555 267.222 349.548 267.36 349.537C267.637 349.515 268.034 349.479 268.513 349.424C269.472 349.314 270.766 349.127 272.105 348.817C273.439 348.508 274.837 348.072 275.994 347.457C277.154 346.84 278.118 346.016 278.479 344.935C278.84 343.855 278.402 343.103 277.62 342.588C276.841 342.075 275.688 341.773 274.517 341.595C273.342 341.417 272.128 341.361 271.21 341.349C270.751 341.344 270.365 341.349 270.093 341.356C269.957 341.359 269.849 341.363 269.776 341.366C269.739 341.367 269.71 341.368 269.691 341.369L269.669 341.37L269.663 341.371L269.662 341.371L269.661 341.371C269.661 341.371 269.661 341.371 269.582 341.608L269.661 341.371Z" fill="white" stroke="black" stroke-width="0.5"/>
<mask id="mask11_3360_9181" style="mask-type:alpha" maskUnits="userSpaceOnUse" x="25" y="32" width="67" height="71">
<path d="M36.0543 35.3526L33.6904 37.5515L33.7081 37.5715L33.3174 37.9022C27.558 42.7759 24.5222 50.955 25.7829 61.0619C26.9607 70.5047 31.6654 79.7995 38.337 87.1846C45.0094 94.5705 53.618 100.012 62.5667 101.792C71.2095 103.511 78.5587 101.499 83.5809 96.8934L83.645 96.8347L83.6556 96.8246L83.6594 96.821C83.7608 96.7271 83.8613 96.632 83.9608 96.5358L83.9645 96.5323L87.7586 92.9421L86.9119 92.9851L87.3863 92.1837C90.1751 87.4735 91.4014 81.3389 90.5183 74.2597C89.3405 64.8169 84.6358 55.5221 77.9642 48.137C71.2918 40.7511 62.6832 35.3094 53.7345 33.5294C47.2451 32.2386 41.4864 33.0529 36.8986 35.4825L35.858 36.0335L36.0543 35.3526Z" fill="#D9D9D9" stroke="black"/>
</mask>
<g mask="url(#mask11_3360_9181)">
<path d="M36.0543 35.3526L33.6904 37.5515L33.7081 37.5715L33.3174 37.9022C27.558 42.7759 24.5222 50.955 25.7829 61.0619C26.9607 70.5047 31.6654 79.7995 38.337 87.1846C45.0094 94.5705 53.618 100.012 62.5667 101.792C71.2095 103.511 78.5587 101.499 83.5809 96.8934L83.645 96.8347L83.6556 96.8246L83.6594 96.821C83.7608 96.7271 83.8613 96.632 83.9608 96.5358L83.9645 96.5323L87.7586 92.9421L86.9119 92.9851L87.3863 92.1837C90.1751 87.4735 91.4014 81.3389 90.5183 74.2597C89.3405 64.8169 84.6358 55.5221 77.9642 48.137C71.2918 40.7511 62.6832 35.3094 53.7345 33.5294C47.2451 32.2386 41.4864 33.0529 36.8986 35.4825L35.858 36.0335L36.0543 35.3526Z" fill="#C2C8CF" stroke="black"/>
<path d="M54.6147 86.4043L43.9727 96.592L76.8019 108.165L93.0986 88.7978L54.6147 86.4043Z" fill="black"/>
<path d="M48.7715 84.5954L41.1161 92.3855L37.3036 88.9778L45.2706 80.4736L48.7715 84.5954Z" fill="black"/>
<path d="M36.0543 35.3526L33.6904 37.5515L33.7081 37.5715L33.3174 37.9022C27.558 42.7759 24.5222 50.955 25.7829 61.0619C26.9607 70.5047 31.6654 79.7995 38.337 87.1846C45.0094 94.5705 53.618 100.012 62.5667 101.792C71.2095 103.511 78.5587 101.499 83.5809 96.8934L83.645 96.8347L83.6556 96.8246L83.6594 96.821C83.7608 96.7271 83.8613 96.632 83.9608 96.5358L83.9645 96.5323L87.7586 92.9421L86.9119 92.9851L87.3863 92.1837C90.1751 87.4735 91.4014 81.3389 90.5183 74.2597C89.3405 64.8169 84.6358 55.5221 77.9642 48.137C71.2918 40.7511 62.6832 35.3094 53.7345 33.5294C47.2451 32.2386 41.4864 33.0529 36.8986 35.4825L35.858 36.0335L36.0543 35.3526Z" stroke="black"/>
</g>
<path d="M31.6417 55.7196C33.995 74.5858 50.411 92.732 68.2719 96.2847C86.1328 99.8374 98.742 87.4646 96.3887 68.5985C94.0354 49.7323 77.6194 31.5861 59.7585 28.0334C41.8977 24.4807 29.2884 36.8534 31.6417 55.7196Z" fill="white" stroke="black"/>
<mask id="mask12_3360_9181" style="mask-type:alpha" maskUnits="userSpaceOnUse" x="39" y="36" width="50" height="53">
<path d="M40.3096 57.4529C42.0331 71.2702 54.0535 84.5507 67.122 87.1502C80.1904 89.7496 89.425 80.6969 87.7015 66.8796C85.978 53.0623 73.9576 39.7818 60.8892 37.1823C47.8208 34.5829 38.5861 43.6355 40.3096 57.4529Z" fill="#66DD8C" stroke="black"/>
</mask>
<g mask="url(#mask12_3360_9181)">
<path d="M40.3096 57.4529C42.0331 71.2702 54.0535 84.5507 67.122 87.1502C80.1904 89.7496 89.425 80.6969 87.7015 66.8796C85.978 53.0623 73.9576 39.7818 60.8892 37.1823C47.8208 34.5829 38.5861 43.6355 40.3096 57.4529Z" fill="#B9F641" stroke="black"/>
<path d="M38.6891 58.896C40.3405 72.1351 51.8575 84.8584 64.377 87.3487C76.8966 89.8389 85.7448 81.1665 84.0934 67.9274C82.442 54.6883 70.925 41.965 58.4055 39.4747C45.8859 36.9844 37.0377 45.6569 38.6891 58.896Z" stroke="white"/>
<path d="M40.3096 57.4529C42.0331 71.2702 54.0535 84.5507 67.122 87.1502C80.1904 89.7496 89.425 80.6969 87.7015 66.8796C85.978 53.0623 73.9576 39.7818 60.8892 37.1823C47.8208 34.5829 38.5861 43.6355 40.3096 57.4529Z" stroke="black"/>
</g>
<path d="M54.8927 62.8186L53.7597 62.2392L57.735 48.2023L60.3004 46.4385L70.6482 62.3316L75.3082 62.9727L72.7987 66.3253L71.2343 76.6555L68.6731 78.4346L54.2251 63.5255L54.2494 63.5389C54.2466 63.5371 54.2438 63.5353 54.241 63.5335L54.8927 62.8186Z" fill="black"/>
<path d="M60.4641 46.8843L74.9497 62.8166L67.3358 65.8771L56.6349 60.4055L60.4641 46.8843ZM68.2867 68.1902L75.2803 64.8141L71.0804 76.2271L57.7888 62.5113L68.0473 68.1587L68.1896 68.2371L68.2867 68.1902Z" fill="white" stroke="black" stroke-width="0.5"/>
</svg>
