<svg width="355" height="407" viewBox="0 0 355 407" fill="none" xmlns="http://www.w3.org/2000/svg">
<path d="M23.397 349.698L17.1413 346.322C9.6816 342.294 4.55097 337.49 9.19779 330.391L31.9481 295.624L23.397 349.698Z" fill="black" stroke="black" stroke-miterlimit="10"/>
<path d="M348 149.985C348 143.212 341.047 136.799 329.672 134.177L188.636 101.616C173.84 98.1954 157.177 102.482 151.416 111.179L16.7485 314.514C15.4208 316.528 14.7907 318.599 14.7795 320.635L14.6895 337.524C14.6782 344.308 21.6315 350.721 33.0179 353.354L174.054 385.916C188.85 389.336 205.513 385.05 211.274 376.352L345.941 173.017C347.269 171.014 347.899 168.944 347.91 166.907L348 150.019C348 150.019 348 150.042 348 150.053C348 150.03 348 150.008 348 149.997V149.985ZM347.967 150.785C347.967 150.785 347.967 150.751 347.967 150.728C347.967 150.751 347.967 150.762 347.967 150.785Z" fill="#B9F641"/>
<path d="M329.67 134.177C344.466 137.598 351.791 147.42 346.03 156.117L211.362 359.453C205.601 368.15 188.938 372.437 174.143 369.016L33.1064 336.454C18.3108 333.034 10.9862 323.212 16.7469 314.514L151.415 111.179C157.175 102.482 173.839 98.1954 188.634 101.616L329.67 134.177Z" fill="white" stroke="black" stroke-miterlimit="10"/>
<path d="M324.979 137.113C337.31 139.96 343.42 148.151 338.615 155.396L205.658 356.155C200.853 363.401 186.958 366.979 174.627 364.132L38.2485 332.651C25.917 329.804 19.8075 321.613 24.6118 314.367L157.569 113.609C162.374 106.363 176.269 102.785 188.601 105.632L324.979 137.113Z" fill="black"/>
<path d="M348 149.985C348 143.212 341.047 136.799 329.672 134.177L188.636 101.616C173.84 98.1954 157.177 102.482 151.416 111.179L16.7485 314.514C15.4208 316.528 14.7907 318.599 14.7795 320.635L14.6895 337.524C14.6782 344.308 21.6315 350.721 33.0179 353.354L174.054 385.916C188.85 389.336 205.513 385.05 211.274 376.352L345.941 173.017C347.269 171.014 347.899 168.944 347.91 166.907L348 150.019C348 150.019 348 150.042 348 150.053C348 150.03 348 150.008 348 149.997V149.985ZM347.967 150.785C347.967 150.785 347.967 150.751 347.967 150.728C347.967 150.751 347.967 150.762 347.967 150.785Z" stroke="black" stroke-miterlimit="10" stroke-linecap="round"/>
<path d="M136.394 371.187C137.55 371.187 138.487 370.25 138.487 369.095C138.487 367.939 137.55 367.002 136.394 367.002C135.239 367.002 134.302 367.939 134.302 369.095C134.302 370.25 135.239 371.187 136.394 371.187Z" fill="black"/>
<path d="M143.606 372.842C144.762 372.842 145.699 371.905 145.699 370.749C145.699 369.594 144.762 368.656 143.606 368.656C142.451 368.656 141.514 369.594 141.514 370.749C141.514 371.905 142.451 372.842 143.606 372.842Z" fill="black"/>
<path d="M150.809 374.506C151.964 374.506 152.901 373.569 152.901 372.413C152.901 371.258 151.964 370.32 150.809 370.32C149.653 370.32 148.716 371.258 148.716 372.413C148.716 373.569 149.653 374.506 150.809 374.506Z" fill="black"/>
<path d="M158.009 376.171C159.165 376.171 160.101 375.234 160.101 374.079C160.101 372.923 159.165 371.985 158.009 371.985C156.853 371.985 155.916 372.923 155.916 374.079C155.916 375.234 156.853 376.171 158.009 376.171Z" fill="black"/>
<path d="M36.9327 348.078C38.0885 348.078 39.0254 347.141 39.0254 345.985C39.0254 344.829 38.0885 343.893 36.9327 343.893C35.7769 343.893 34.8398 344.829 34.8398 345.985C34.8398 347.141 35.7769 348.078 36.9327 348.078Z" fill="black"/>
<path d="M44.1328 349.743C45.2886 349.743 46.2255 348.806 46.2255 347.65C46.2255 346.494 45.2886 345.558 44.1328 345.558C42.977 345.558 42.04 346.494 42.04 347.65C42.04 348.806 42.977 349.743 44.1328 349.743Z" fill="black"/>
<path d="M51.3349 351.396C52.4907 351.396 53.4277 350.459 53.4277 349.303C53.4277 348.147 52.4907 347.21 51.3349 347.21C50.1791 347.21 49.2422 348.147 49.2422 349.303C49.2422 350.459 50.1791 351.396 51.3349 351.396Z" fill="black"/>
<path d="M58.5468 353.063C59.7026 353.063 60.6397 352.126 60.6397 350.97C60.6397 349.814 59.7026 348.877 58.5468 348.877C57.391 348.877 56.4541 349.814 56.4541 350.97C56.4541 352.126 57.391 353.063 58.5468 353.063Z" fill="black"/>
<path d="M110.08 362.29C110.08 364.484 108.336 365.879 106.198 365.384L88.9501 361.401C86.8123 360.906 85.0684 358.712 85.0684 356.518C85.0684 354.324 86.8123 352.929 88.9501 353.424L106.198 357.407C108.336 357.902 110.08 360.096 110.08 362.29Z" fill="black"/>
<path d="M168.191 10.2685L161.822 13.194L162.362 14.3751C154.622 22.2286 152.911 36.5293 158.987 49.761C165.063 62.9926 177.034 71.0038 188.038 70.2387L188.578 71.4199L194.946 68.4944C207.413 62.7675 211.531 45.0802 204.139 29.0019C196.747 12.9237 180.646 4.53029 168.179 10.2685H168.191Z" fill="#729F01" stroke="black" stroke-miterlimit="10"/>
<path d="M167.876 62.1699C173.85 67.728 181.13 70.7101 188.038 70.2376L188.578 71.4187L194.946 68.4933C203.34 64.634 207.919 55.3629 207.784 44.8203L167.864 62.1814L167.876 62.1699Z" fill="black" stroke="black" stroke-miterlimit="10"/>
<path d="M188.208 71.6339C200.675 65.9049 204.791 48.2247 197.401 32.1439C190.012 16.0631 173.915 7.67127 161.448 13.4002C148.981 19.1292 144.864 36.8095 152.254 52.8903C159.644 68.9711 175.74 77.3629 188.208 71.6339Z" fill="#B9F641"/>
<path d="M161.822 13.1943C152.124 17.6498 147.488 29.3287 149.367 41.8628L199.076 60.2699C202.507 52.3152 202.327 41.8289 197.77 31.9277C190.378 15.8495 174.278 7.45607 161.811 13.1943H161.822Z" fill="white"/>
<path d="M188.432 35.2477L179.948 40.0746C178.013 41.1772 176.697 39.9284 177.012 37.3068L178.407 25.8077L176.539 24.9863L175.144 36.4855C174.829 39.1071 173.355 39.1178 171.87 36.5075L165.367 25.0764L163.87 25.9313L170.373 37.3629C171.859 39.9619 171.094 41.2218 168.674 40.1642L158.076 35.4949L157.828 37.5205L168.427 42.1897C170.846 43.2586 171.24 45.0251 169.305 46.1277L160.821 50.9546L161.969 52.9687L170.452 48.1418C172.387 47.0391 173.704 48.288 173.389 50.9096L171.994 62.3972L173.861 63.2185L175.257 51.7309C175.572 49.1093 177.046 49.098 178.531 51.7084L185.034 63.1399L186.53 62.2846L180.027 50.853C178.542 48.2539 179.307 46.994 181.726 48.0517L192.325 52.7209L192.572 50.6959L181.974 46.0266C179.555 44.9578 179.161 43.1913 181.096 42.0887L189.58 37.2618L188.432 35.2477Z" fill="black"/>
<path d="M188.208 71.6339C200.675 65.9049 204.791 48.2247 197.401 32.1439C190.012 16.0631 173.915 7.67127 161.448 13.4002C148.981 19.1292 144.864 36.8095 152.254 52.8903C159.644 68.9711 175.74 77.3629 188.208 71.6339Z" stroke="black" stroke-miterlimit="10"/>
<path d="M74.1633 256.569L97.1836 261.88L86.3036 278.318L63.2832 272.996L74.1633 256.569Z" stroke="#729F01" stroke-miterlimit="10"/>
<path d="M97.1828 261.881L120.203 267.192L109.323 283.63L86.3027 278.319L97.1828 261.881Z" stroke="#729F01" stroke-miterlimit="10"/>
<path d="M120.204 267.192L143.225 272.514L132.345 288.941L109.324 283.631L120.204 267.192Z" stroke="#729F01" stroke-miterlimit="10"/>
<path d="M143.224 272.515L166.255 277.825L155.364 294.263L132.344 288.941L143.224 272.515Z" stroke="#729F01" stroke-miterlimit="10"/>
<path d="M166.256 277.823L189.276 283.145L178.385 299.572L155.364 294.261L166.256 277.823Z" stroke="#729F01" stroke-miterlimit="10"/>
<path d="M189.276 283.146L212.296 288.457L201.405 304.885L178.385 299.574L189.276 283.146Z" stroke="#729F01" stroke-miterlimit="10"/>
<path d="M212.296 288.457L235.316 293.767L224.425 310.206L201.404 304.884L212.296 288.457Z" stroke="#729F01" stroke-miterlimit="10"/>
<path d="M85.0422 240.131L108.074 245.453L97.1825 261.88L74.1621 256.569L85.0422 240.131Z" stroke="#729F01" stroke-miterlimit="10"/>
<path d="M108.075 245.455L131.095 250.766L120.204 267.193L97.1836 261.882L108.075 245.455Z" stroke="#729F01" stroke-miterlimit="10"/>
<path d="M131.095 250.766L154.115 256.076L143.223 272.515L120.203 267.193L131.095 250.766Z" stroke="#729F01" stroke-miterlimit="10"/>
<path d="M154.115 256.074L177.135 261.396L166.255 277.823L143.224 272.513L154.115 256.074Z" stroke="#729F01" stroke-miterlimit="10"/>
<path d="M177.136 261.397L200.156 266.708L189.276 283.146L166.256 277.825L177.136 261.397Z" stroke="#729F01" stroke-miterlimit="10"/>
<path d="M200.157 266.708L223.177 272.019L212.297 288.457L189.276 283.146L200.157 266.708Z" stroke="#729F01" stroke-miterlimit="10"/>
<path d="M223.178 272.019L246.198 277.34L235.318 293.767L212.298 288.457L223.178 272.019Z" stroke="#729F01" stroke-miterlimit="10"/>
<path d="M95.9344 223.706L118.955 229.017L108.075 245.455L85.043 240.133L95.9344 223.706Z" stroke="#729F01" stroke-miterlimit="10"/>
<path d="M118.953 229.016L141.974 234.327L131.094 250.765L108.073 245.454L118.953 229.016Z" stroke="#729F01" stroke-miterlimit="10"/>
<path d="M141.975 234.326L164.995 239.648L154.115 256.075L131.095 250.764L141.975 234.326Z" stroke="#729F01" stroke-miterlimit="10"/>
<path d="M164.996 239.649L188.017 244.96L177.137 261.398L154.116 256.076L164.996 239.649Z" stroke="#729F01" stroke-miterlimit="10"/>
<path d="M188.016 244.959L211.036 250.27L200.156 266.708L177.136 261.397L188.016 244.959Z" stroke="#729F01" stroke-miterlimit="10"/>
<path d="M211.037 250.27L234.058 255.591L223.178 272.019L200.157 266.708L211.037 250.27Z" stroke="#729F01" stroke-miterlimit="10"/>
<path d="M234.056 255.591L257.076 260.901L246.196 277.34L223.176 272.018L234.056 255.591Z" stroke="#729F01" stroke-miterlimit="10"/>
<path d="M106.814 207.268L129.834 212.578L118.954 229.017L95.9336 223.706L106.814 207.268Z" stroke="#729F01" stroke-miterlimit="10"/>
<path d="M129.835 212.578L152.856 217.9L141.975 234.327L118.955 229.016L129.835 212.578Z" stroke="#729F01" stroke-miterlimit="10"/>
<path d="M152.856 217.899L175.876 223.21L164.996 239.648L141.976 234.327L152.856 217.899Z" stroke="#729F01" stroke-miterlimit="10"/>
<path d="M175.876 223.21L198.908 228.532L188.016 244.959L164.996 239.649L175.876 223.21Z" stroke="#729F01" stroke-miterlimit="10"/>
<path d="M198.908 228.531L221.928 233.842L211.037 250.269L188.017 244.958L198.908 228.531Z" stroke="#729F01" stroke-miterlimit="10"/>
<path d="M221.927 233.842L244.948 239.152L234.056 255.591L211.036 250.269L221.927 233.842Z" stroke="#729F01" stroke-miterlimit="10"/>
<path d="M244.947 239.153L267.967 244.475L257.076 260.902L234.056 255.592L244.947 239.153Z" stroke="#729F01" stroke-miterlimit="10"/>
<path d="M117.695 190.829L140.727 196.151L129.836 212.578L106.815 207.267L117.695 190.829Z" stroke="#729F01" stroke-miterlimit="10"/>
<path d="M140.726 196.15L163.747 201.461L152.855 217.899L129.835 212.578L140.726 196.15Z" stroke="#729F01" stroke-miterlimit="10"/>
<path d="M163.748 201.461L186.768 206.783L175.877 223.21L152.856 217.9L163.748 201.461Z" stroke="#729F01" stroke-miterlimit="10"/>
<path d="M186.767 206.782L209.788 212.093L198.908 228.531L175.876 223.209L186.767 206.782Z" stroke="#729F01" stroke-miterlimit="10"/>
<path d="M209.787 212.093L232.808 217.404L221.928 233.842L198.907 228.531L209.787 212.093Z" stroke="#729F01" stroke-miterlimit="10"/>
<path d="M232.808 217.405L255.828 222.727L244.948 239.154L221.928 233.843L232.808 217.405Z" stroke="#729F01" stroke-miterlimit="10"/>
<path d="M255.827 222.726L278.848 228.036L267.968 244.474L244.947 239.152L255.827 222.726Z" stroke="#729F01" stroke-miterlimit="10"/>
<path d="M128.586 174.401L151.606 179.712L140.726 196.15L117.694 190.828L128.586 174.401Z" stroke="#729F01" stroke-miterlimit="10"/>
<path d="M151.607 179.713L174.627 185.035L163.747 201.461L140.727 196.151L151.607 179.713Z" stroke="#729F01" stroke-miterlimit="10"/>
<path d="M174.627 185.033L197.647 190.344L186.767 206.782L163.747 201.46L174.627 185.033Z" stroke="#729F01" stroke-miterlimit="10"/>
<path d="M197.648 190.344L220.668 195.655L209.788 212.093L186.768 206.782L197.648 190.344Z" stroke="#729F01" stroke-miterlimit="10"/>
<path d="M220.667 195.656L243.687 200.978L232.807 217.405L209.787 212.094L220.667 195.656Z" stroke="#729F01" stroke-miterlimit="10"/>
<path d="M243.687 200.978L266.707 206.288L255.827 222.727L232.807 217.405L243.687 200.978Z" stroke="#729F01" stroke-miterlimit="10"/>
<path d="M266.707 206.288L289.728 211.61L278.847 228.037L255.827 222.727L266.707 206.288Z" stroke="#729F01" stroke-miterlimit="10"/>
<path d="M324.98 137.113C337.311 139.96 343.421 148.151 338.616 155.397L239.57 304.95L58.5244 263.151L157.57 113.598C162.375 106.352 176.27 102.774 188.602 105.621L324.98 137.102V137.113Z" fill="url(#paint0_linear_3360_9805)"/>
<path d="M77.0986 252.844L83.0507 254.216L100.479 238.262L101.897 246.486L110.842 243.336L117.896 243.055L134.019 229.081L138.396 232.838L128.585 258.008L137.327 255.172L141.142 259.786L149.13 258.086L161.822 249.288L166.378 252.753L175.436 249.446L180.645 251.955L192.155 244.923L193.404 253.406L211.879 235.876L215.581 240.647L224.863 237.002L231.805 236.889L248.322 222.318L257.267 219.168L247.388 244.45L253.982 244.855L255.973 252.202L264.288 250.031" stroke="#B9F641" stroke-miterlimit="10"/>
<path d="M175.527 325.833C180.016 326.868 182.232 329.85 180.488 332.483L173.625 342.845C171.881 345.478 166.829 346.783 162.34 345.748L67.772 323.921C63.2827 322.886 61.0663 319.904 62.8102 317.271L69.6735 306.909C71.4175 304.276 76.4694 302.97 80.9587 304.006L175.527 325.833Z" fill="#B9F641"/>
<path d="M114.004 319.071L117.357 319.848C118.167 320.039 118.685 320.32 118.91 320.658C119.146 321.018 119.112 321.389 118.831 321.817C118.46 322.379 117.751 322.627 116.93 322.638V322.66C117.627 323.032 117.852 323.662 117.413 324.337C117.076 324.843 116.626 325.147 115.996 325.327C115.388 325.507 114.623 325.507 113.824 325.327L110.393 324.528L114.004 319.071ZM112.519 323.966L114.263 324.371C114.994 324.539 115.636 324.348 115.928 323.898C116.277 323.381 115.928 322.998 115.231 322.829L113.52 322.435L112.508 323.966H112.519ZM115.714 322.008C116.378 322.154 116.975 322.03 117.256 321.603C117.526 321.198 117.267 320.871 116.603 320.714L114.927 320.332L114.072 321.625L115.714 322.008Z" fill="black"/>
<path d="M120.542 326.868L120.846 326.407H120.812C120.205 326.677 119.653 326.778 118.899 326.609C117.707 326.339 117.403 325.619 117.966 324.764L119.698 322.153L121.116 322.48L119.507 324.91C119.203 325.371 119.316 325.687 119.923 325.822C120.598 325.979 121.24 325.709 121.589 325.191L123.085 322.93L124.514 323.256L121.926 327.171L120.553 326.857L120.542 326.868Z" fill="black"/>
<path d="M122.647 327.893L123.153 328.006C123.715 328.141 124.087 327.972 124.3 327.657C124.447 327.443 124.503 327.162 124.593 326.498L124.987 323.382L126.483 323.731L126.112 325.677C126.044 326.071 125.887 326.611 125.887 326.611H125.909C125.909 326.611 126.382 326.149 126.787 325.834L128.711 324.248L130.151 324.575L125.617 328.152C124.627 328.928 124.03 329.142 122.939 328.895L122.106 328.704L122.647 327.893Z" fill="black"/>
<path d="M72.5537 285.271C71.8561 286.317 72.2949 287.397 73.5213 287.69L83.04 289.884C84.2664 290.166 85.8304 289.547 86.5167 288.5L87.6306 286.824C88.3282 285.777 87.8893 284.697 86.6629 284.405L77.1443 282.21C75.9179 281.929 74.3539 282.548 73.6676 283.594L72.5537 285.271Z" fill="#729F01"/>
<path d="M95.5742 290.582C94.8766 291.628 95.3154 292.708 96.5418 293.001L106.061 295.194C107.287 295.476 108.851 294.857 109.537 293.81L110.651 292.134C111.349 291.088 110.91 290.008 109.683 289.715L100.165 287.521C98.9383 287.24 97.3744 287.858 96.6881 288.905L95.5742 290.582Z" fill="#729F01"/>
<path d="M118.594 295.893C117.896 296.939 118.335 298.019 119.561 298.312L129.08 300.506C130.306 300.787 131.87 300.168 132.557 299.122L133.671 297.445C134.368 296.399 133.929 295.319 132.703 295.026L123.184 292.832C121.958 292.551 120.394 293.17 119.708 294.216L118.594 295.893Z" fill="#729F01"/>
<path d="M141.626 301.215C140.928 302.261 141.367 303.341 142.594 303.634L152.112 305.828C153.339 306.109 154.903 305.49 155.589 304.444L156.703 302.767C157.4 301.721 156.962 300.641 155.735 300.348L146.217 298.155C144.99 297.873 143.426 298.492 142.74 299.539L141.626 301.215Z" fill="#729F01"/>
<path d="M164.646 306.525C163.948 307.571 164.387 308.651 165.613 308.944L175.132 311.138C176.358 311.419 177.922 310.8 178.609 309.754L179.722 308.078C180.42 307.031 179.981 305.951 178.755 305.659L169.236 303.464C168.01 303.183 166.446 303.802 165.759 304.848L164.646 306.525Z" fill="#729F01"/>
<path d="M187.667 311.846C186.969 312.893 187.408 313.973 188.635 314.265L198.153 316.459C199.38 316.741 200.944 316.121 201.63 315.075L202.744 313.399C203.441 312.352 203.003 311.272 201.776 310.98L192.258 308.786C191.031 308.504 189.467 309.123 188.781 310.17L187.667 311.846Z" fill="#729F01"/>
<path d="M191.58 207.973L197.948 205.048C206.353 201.177 210.944 191.872 210.797 181.296" stroke="#729F01" stroke-miterlimit="10"/>
<path d="M155.632 189.23C163.024 205.308 179.125 213.702 191.591 207.964C200.03 204.082 204.62 194.732 204.44 184.11L155.182 159.178C150.929 167.29 150.76 178.597 155.643 189.219L155.632 189.23Z" stroke="#729F01" stroke-miterlimit="10"/>
<path d="M207.153 165.557C199.761 149.478 183.66 141.085 171.193 146.823L164.825 149.748L165.365 150.93L204.43 184.132L210.798 181.309C210.72 176.2 209.561 170.8 207.153 165.568V165.557Z" fill="#729F01" stroke="black" stroke-miterlimit="10"/>
<path d="M200.784 168.481C193.392 152.403 177.291 144.009 164.825 149.747C160.594 151.693 157.354 155.036 155.171 159.199L204.429 184.131C204.339 179.057 203.169 173.69 200.784 168.492V168.481Z" fill="#B9F641" stroke="black" stroke-miterlimit="10"/>
<path d="M281.605 101.48L274.64 97.8906L274.044 99.0493C267.878 100.264 259.068 109.547 252.407 122.486C245.746 135.425 243.327 147.993 245.915 153.72L245.319 154.879L252.283 158.468C258.112 161.461 269.397 151.132 277.487 135.403C285.576 119.662 287.422 104.484 281.593 101.48H281.605Z" fill="#729F01" stroke="black" stroke-miterlimit="10"/>
<path d="M246.781 136.461C244.654 143.842 244.294 150.132 245.926 153.721L245.329 154.88L252.294 158.469C256.209 160.483 262.6 156.455 268.833 148.815L246.781 136.461Z" fill="black" stroke="black" stroke-miterlimit="10"/>
<path d="M270.559 131.747C278.654 116.01 280.495 100.823 274.671 97.8274C268.846 94.8315 257.563 105.161 249.468 120.898C241.373 136.636 239.532 151.822 245.356 154.818C251.18 157.814 262.464 147.485 270.559 131.747Z" fill="#B9F641"/>
<path d="M274.64 97.8909C270.106 95.5618 262.286 101.289 255.22 111.347L253.982 152.865C259.361 149.118 265.549 141.49 270.533 131.814C278.623 116.073 280.468 100.895 274.64 97.8909Z" fill="white"/>
<path d="M270.559 131.747C278.654 116.01 280.495 100.823 274.671 97.8274C268.846 94.8315 257.563 105.161 249.468 120.898C241.373 136.636 239.532 151.822 245.356 154.818C251.18 157.814 262.464 147.485 270.559 131.747Z" stroke="black" stroke-miterlimit="10"/>
<defs>
<linearGradient id="paint0_linear_3360_9805" x1="183.719" y1="287.533" x2="201.338" y2="197.151" gradientUnits="userSpaceOnUse">
<stop stop-opacity="0"/>
<stop offset="1"/>
</linearGradient>
</defs>
</svg>
